<svg width="3368" height="3295" viewBox="0 0 3368 3295" fill="none" xmlns="http://www.w3.org/2000/svg">
<mask id="mask0_204_49" style="mask-type:alpha" maskUnits="userSpaceOnUse" x="515" y="956" width="2340" height="2339">
<circle cx="1684.5" cy="2125.5" r="1169.5" fill="#0C1D59"/>
</mask>
<g mask="url(#mask0_204_49)">
<path fill-rule="evenodd" clip-rule="evenodd" d="M1684.5 3295C2330.4 3295 2854 2771.4 2854 2125.5C2854 1929.98 2806.02 1745.67 2721.2 1583.69C2792.34 1493.46 2842.69 1387.92 2867.82 1274.6L2493.14 1191.53C2487.91 1215.12 2480.5 1238.04 2471.06 1260.01C2263.34 1071.13 1987.37 956 1684.5 956C1038.6 956 515.002 1479.6 515.002 2125.5C515.002 2319.85 562.409 2503.13 646.291 2664.4C571.635 2756.44 518.929 2864.99 493.031 2981.8L867.704 3064.87C873.662 3037.99 882.46 3011.99 893.859 2987.26C1102.03 3178.35 1379.64 3295 1684.5 3295ZM646.291 2664.4C709.603 2786.12 793.692 2895.31 893.859 2987.26C916.016 2939.2 948.004 2895.96 988.083 2860.5C1045.38 2809.81 1116.44 2777.47 1192.09 2767.47C1353.41 2751.93 1505.67 2685.71 1627.06 2578.32C1748.38 2470.99 1832.62 2328.03 1867.75 2169.91L1867.93 2169.95C1885.47 2090.82 1927.61 2019.29 1988.31 1965.58C2046.52 1914.09 2118.93 1881.53 2195.91 1872.09C2355.81 1855.88 2506.63 1789.87 2627.06 1683.32C2661.52 1652.83 2692.99 1619.47 2721.2 1583.69C2657.2 1461.49 2572.22 1352 2471.06 1260.01C2448.83 1311.73 2415.37 1358.2 2372.76 1395.9C2314.56 1447.39 2242.15 1479.95 2165.17 1489.39C2005.26 1505.6 1854.45 1571.61 1734.02 1678.16C1612.7 1785.49 1528.45 1928.45 1493.33 2086.57L1493.14 2086.53C1475.6 2165.66 1433.46 2237.19 1372.76 2290.9C1315.46 2341.59 1244.4 2373.93 1168.76 2383.93C1007.44 2399.47 855.174 2465.69 733.789 2573.08C702.007 2601.2 672.769 2631.76 646.291 2664.4Z" fill="#546DC4"/>
</g>
<rect x="1531" width="331" height="444" rx="116" fill="#546DC4"/>
<rect x="2437.23" y="105.66" width="331.846" height="445.16" rx="116" transform="rotate(20 2437.23 105.66)" fill="#546DC4"/>
<rect x="644.844" y="219.158" width="331.846" height="445.16" rx="116" transform="rotate(-20 644.844 219.158)" fill="#546DC4"/>
<mask id="mask1_204_49" style="mask-type:alpha" maskUnits="userSpaceOnUse" x="0" y="444" width="3368" height="1856">
<rect y="444" width="3368" height="1856" fill="#C4C4C4"/>
</mask>
<g mask="url(#mask1_204_49)">
<path d="M3279.69 1536.99C3122.54 1251.13 2891.5 1012.71 2610.72 846.659C2329.94 680.604 2009.71 593 1683.5 593C1357.29 593 1037.07 680.603 756.282 846.658C475.499 1012.71 244.462 1251.12 87.3083 1536.98L406.547 1712.49C532.269 1483.8 717.099 1293.07 941.726 1160.23C1166.35 1027.38 1422.53 957.3 1683.5 957.3C1944.47 957.3 2200.65 1027.38 2425.28 1160.23C2649.9 1293.07 2834.73 1483.8 2960.45 1712.49L3279.69 1536.99Z" fill="#546DC4"/>
<path d="M3279.9 1536.58C3303.17 1578.91 3308.67 1628.74 3295.2 1675.12C3281.72 1721.51 3250.37 1760.63 3208.05 1783.9C3165.73 1807.17 3115.89 1812.67 3069.51 1799.2C3023.13 1785.72 2984 1754.37 2960.73 1712.05L3120.32 1624.32L3279.9 1536.58Z" fill="#546DC4"/>
<path d="M406.902 1712.47C383.634 1754.79 344.506 1786.14 298.125 1799.61C251.744 1813.09 201.909 1807.59 159.585 1784.32C117.26 1761.05 85.9124 1721.92 72.4375 1675.54C58.9626 1629.16 64.4643 1579.32 87.7324 1537L247.317 1624.73L406.902 1712.47Z" fill="#546DC4"/>
</g>
</svg>
