<svg width="3368" height="3295" viewBox="0 0 3368 3295" fill="none" xmlns="http://www.w3.org/2000/svg">
<circle cx="1684.5" cy="2125.5" r="1169.5" fill="#B3C3FF"/>
<circle cx="1679.5" cy="2125.5" r="756.5" fill="#0C1D59"/>
<rect x="1531" width="331" height="444" rx="116" fill="#B3C3FF"/>
<rect x="2437.23" y="105.66" width="331.846" height="445.16" rx="116" transform="rotate(20 2437.23 105.66)" fill="#B3C3FF"/>
<rect x="644.844" y="219.158" width="331.846" height="445.16" rx="116" transform="rotate(-20 644.844 219.158)" fill="#B3C3FF"/>
<mask id="mask0_101_79" style="mask-type:alpha" maskUnits="userSpaceOnUse" x="515" y="955" width="2340" height="2340">
<circle cx="1684.63" cy="2125.2" r="1169.46" fill="black"/>
</mask>
<g mask="url(#mask0_101_79)">
<g opacity="0.8">
<path d="M1168.81 2383.63C1007.47 2399.16 855.185 2465.37 733.788 2572.78C612.391 2680.18 528.112 2823.26 493.03 2981.5L867.702 3064.57C885.243 2985.44 927.383 2913.91 988.081 2860.2C1048.78 2806.5 1124.92 2773.4 1205.59 2765.63L1168.81 2383.63Z" fill="white"/>
<path d="M1192.04 2767.47C1353.38 2751.94 1505.66 2685.73 1627.06 2578.32C1748.45 2470.92 1832.73 2327.84 1867.81 2169.6L1493.14 2086.53C1475.6 2165.66 1433.46 2237.19 1372.76 2290.9C1312.07 2344.6 1235.92 2377.7 1155.25 2385.47L1192.04 2767.47Z" fill="white"/>
<path d="M2169.04 1489C2007.7 1504.54 1855.42 1570.75 1734.02 1678.16C1612.62 1785.56 1528.34 1928.64 1493.26 2086.88L1867.93 2169.95C1885.47 2090.82 1927.61 2019.29 1988.31 1965.58C2049.01 1911.88 2125.15 1878.77 2205.82 1871.01L2169.04 1489Z" fill="white"/>
<path d="M2192.04 1872.47C2353.38 1856.94 2505.66 1790.73 2627.06 1683.32C2748.45 1575.92 2832.73 1432.84 2867.82 1274.6L2493.14 1191.53C2475.6 1270.66 2433.46 1342.19 2372.76 1395.9C2312.07 1449.6 2235.92 1482.7 2155.25 1490.47L2192.04 1872.47Z" fill="white"/>
</g>
</g>
<mask id="mask1_101_79" style="mask-type:alpha" maskUnits="userSpaceOnUse" x="0" y="444" width="3368" height="1856">
<rect y="444" width="3368" height="1856" fill="#C4C4C4"/>
</mask>
<g mask="url(#mask1_101_79)">
<path d="M3279.69 1536.99C3122.54 1251.13 2891.5 1012.71 2610.72 846.659C2329.94 680.604 2009.71 593 1683.5 593C1357.29 593 1037.07 680.603 756.282 846.658C475.499 1012.71 244.462 1251.12 87.3083 1536.98L406.547 1712.49C532.269 1483.8 717.099 1293.07 941.726 1160.23C1166.35 1027.38 1422.53 957.3 1683.5 957.3C1944.47 957.3 2200.65 1027.38 2425.28 1160.23C2649.9 1293.07 2834.73 1483.8 2960.45 1712.49L3279.69 1536.99Z" fill="#0C1D59"/>
<path d="M3279.9 1536.58C3303.17 1578.91 3308.67 1628.74 3295.2 1675.12C3281.72 1721.51 3250.37 1760.63 3208.05 1783.9C3165.73 1807.17 3115.89 1812.67 3069.51 1799.2C3023.13 1785.72 2984 1754.37 2960.73 1712.05L3120.32 1624.32L3279.9 1536.58Z" fill="#0C1D59"/>
<path d="M406.902 1712.47C383.634 1754.79 344.506 1786.14 298.125 1799.61C251.744 1813.09 201.909 1807.59 159.585 1784.32C117.26 1761.05 85.9126 1721.92 72.4376 1675.54C58.9627 1629.16 64.4644 1579.32 87.7326 1537L247.317 1624.73L406.902 1712.47Z" fill="#0C1D59"/>
</g>
</svg>
