<svg width="3924" height="3924" viewBox="0 0 3924 3924" fill="none" xmlns="http://www.w3.org/2000/svg">
<rect x="306" y="306" width="1656" height="1656" fill="#F1F4FF"/>
<rect x="1946" y="1962" width="1656" height="1656" fill="#F1F4FF"/>
<path d="M0 3771C0 3686.5 68.5004 3618 153 3618H519C603.5 3618 672 3686.5 672 3771V3771C672 3855.5 603.5 3924 519 3924H153C68.5005 3924 0 3855.5 0 3771V3771Z" fill="#0C1D59"/>
<rect x="3252" width="672" height="306" rx="153" fill="#0C1D59"/>
<rect x="3252" y="3612" width="672" height="306" rx="153" fill="#0C1D59"/>
<rect y="6" width="672" height="306" rx="153" fill="#0C1D59"/>
<path d="M1113.55 1112.87L908.52 1718H670.287L1008.13 798.273L1159.2 803.254L1113.55 1112.87ZM891.918 441.34C922.908 441.34 950.023 444.66 973.266 451.301C997.061 457.941 1017.81 467.626 1035.52 480.354C1053.78 492.528 1069.28 507.746 1082.01 526.008C1094.73 543.716 1105.25 563.638 1113.55 585.773L1460.52 1469.81C1467.72 1486.41 1475.19 1501.35 1482.93 1514.63C1490.68 1527.36 1499.81 1537.6 1510.33 1545.34C1520.84 1552.54 1533.57 1556.13 1548.51 1556.13C1553.49 1556.13 1558.47 1556.13 1563.45 1556.13C1568.43 1556.13 1572.86 1555.86 1576.73 1555.3L1579.22 1726.3C1568.71 1728.51 1556.26 1730.17 1541.87 1731.28C1527.48 1732.39 1511.71 1732.94 1494.55 1732.94C1451.39 1732.94 1414.59 1726.58 1384.15 1713.85C1353.72 1701.12 1328.26 1681.48 1307.79 1654.91C1287.87 1627.8 1270.43 1593.49 1255.49 1551.98L1023.07 916.145L928.441 693.684C920.694 674.315 911.84 659.097 901.879 648.029C891.918 636.408 880.297 628.107 867.016 623.127C853.734 617.593 838.24 614.826 820.531 614.826C813.891 614.826 806.697 615.103 798.949 615.656C791.202 615.656 782.901 616.21 774.047 617.316L769.896 456.281C785.391 451.854 805.036 448.257 828.832 445.49C853.181 442.723 874.21 441.34 891.918 441.34Z" fill="#0C1D59"/>
<path d="M2769.55 2762.87L2564.52 3368H2326.29L2664.13 2448.27L2815.2 2453.25L2769.55 2762.87ZM2547.92 2091.34C2578.91 2091.34 2606.02 2094.66 2629.27 2101.3C2653.06 2107.94 2673.81 2117.63 2691.52 2130.35C2709.78 2142.53 2725.28 2157.75 2738.01 2176.01C2750.73 2193.72 2761.25 2213.64 2769.55 2235.77L3116.52 3119.81C3123.72 3136.41 3131.19 3151.35 3138.93 3164.63C3146.68 3177.36 3155.81 3187.6 3166.33 3195.34C3176.84 3202.54 3189.57 3206.13 3204.51 3206.13C3209.49 3206.13 3214.47 3206.13 3219.45 3206.13C3224.43 3206.13 3228.86 3205.86 3232.73 3205.3L3235.22 3376.3C3224.71 3378.51 3212.26 3380.17 3197.87 3381.28C3183.48 3382.39 3167.71 3382.94 3150.55 3382.94C3107.39 3382.94 3070.59 3376.58 3040.15 3363.85C3009.72 3351.12 2984.26 3331.48 2963.79 3304.91C2943.87 3277.8 2926.43 3243.49 2911.49 3201.98L2679.07 2566.14L2584.44 2343.68C2576.69 2324.32 2567.84 2309.1 2557.88 2298.03C2547.92 2286.41 2536.3 2278.11 2523.02 2273.13C2509.73 2267.59 2494.24 2264.83 2476.53 2264.83C2469.89 2264.83 2462.7 2265.1 2454.95 2265.66C2447.2 2265.66 2438.9 2266.21 2430.05 2267.32L2425.9 2106.28C2441.39 2101.85 2461.04 2098.26 2484.83 2095.49C2509.18 2092.72 2530.21 2091.34 2547.92 2091.34Z" fill="#0C1D59"/>
<rect x="306" y="1962" width="1656" height="1656" fill="#CAD6FF"/>
<rect x="1962" y="306" width="1656" height="1656" fill="#CAD6FF"/>
<rect y="6" width="306" height="3912" rx="153" fill="#0C1D59"/>
<rect x="3618" y="6" width="306" height="3912" rx="153" fill="#0C1D59"/>
</svg>
