<svg width="4037" height="4044" viewBox="0 0 4037 4044" fill="none" xmlns="http://www.w3.org/2000/svg">
<rect x="2044" y="399" width="1596" height="1596" rx="270" fill="#CAD6FF" stroke="white" stroke-width="60"/>
<rect x="396" y="396" width="1596" height="1596" rx="270" fill="#F1F4FF" stroke="white" stroke-width="60"/>
<rect x="2052" y="2052" width="1596" height="1596" rx="270" fill="#F1F4FF" stroke="white" stroke-width="60"/>
<path d="M1173.55 1172.87L968.52 1778H730.287L1068.13 858.273L1219.2 863.254L1173.55 1172.87ZM951.918 501.34C982.908 501.34 1010.02 504.66 1033.27 511.301C1057.06 517.941 1077.81 527.626 1095.52 540.354C1113.78 552.528 1129.28 567.746 1142.01 586.008C1154.73 603.716 1165.25 623.638 1173.55 645.773L1520.52 1529.81C1527.72 1546.41 1535.19 1561.35 1542.93 1574.63C1550.68 1587.36 1559.81 1597.6 1570.33 1605.34C1580.84 1612.54 1593.57 1616.13 1608.51 1616.13C1613.49 1616.13 1618.47 1616.13 1623.45 1616.13C1628.43 1616.13 1632.86 1615.86 1636.73 1615.3L1639.22 1786.3C1628.71 1788.51 1616.26 1790.17 1601.87 1791.28C1587.48 1792.39 1571.71 1792.94 1554.55 1792.94C1511.39 1792.94 1474.59 1786.58 1444.15 1773.85C1413.72 1761.12 1388.26 1741.48 1367.79 1714.91C1347.87 1687.8 1330.43 1653.49 1315.49 1611.98L1083.07 976.145L988.441 753.684C980.694 734.315 971.84 719.097 961.879 708.029C951.918 696.408 940.297 688.107 927.016 683.127C913.734 677.593 898.24 674.826 880.531 674.826C873.891 674.826 866.697 675.103 858.949 675.656C851.202 675.656 842.901 676.21 834.047 677.316L829.896 516.281C845.391 511.854 865.036 508.257 888.832 505.49C913.181 502.723 934.21 501.34 951.918 501.34Z" fill="#0C1D59"/>
<path d="M2829.55 2822.87L2624.52 3428H2386.29L2724.13 2508.27L2875.2 2513.25L2829.55 2822.87ZM2607.92 2151.34C2638.91 2151.34 2666.02 2154.66 2689.27 2161.3C2713.06 2167.94 2733.81 2177.63 2751.52 2190.35C2769.78 2202.53 2785.28 2217.75 2798.01 2236.01C2810.73 2253.72 2821.25 2273.64 2829.55 2295.77L3176.52 3179.81C3183.72 3196.41 3191.19 3211.35 3198.93 3224.63C3206.68 3237.36 3215.81 3247.6 3226.33 3255.34C3236.84 3262.54 3249.57 3266.13 3264.51 3266.13C3269.49 3266.13 3274.47 3266.13 3279.45 3266.13C3284.43 3266.13 3288.86 3265.86 3292.73 3265.3L3295.22 3436.3C3284.71 3438.51 3272.26 3440.17 3257.87 3441.28C3243.48 3442.39 3227.71 3442.94 3210.55 3442.94C3167.39 3442.94 3130.59 3436.58 3100.15 3423.85C3069.72 3411.12 3044.26 3391.48 3023.79 3364.91C3003.87 3337.8 2986.43 3303.49 2971.49 3261.98L2739.07 2626.14L2644.44 2403.68C2636.69 2384.32 2627.84 2369.1 2617.88 2358.03C2607.92 2346.41 2596.3 2338.11 2583.02 2333.13C2569.73 2327.59 2554.24 2324.83 2536.53 2324.83C2529.89 2324.83 2522.7 2325.1 2514.95 2325.66C2507.2 2325.66 2498.9 2326.21 2490.05 2327.32L2485.9 2166.28C2501.39 2161.85 2521.04 2158.26 2544.83 2155.49C2569.18 2152.72 2590.21 2151.34 2607.92 2151.34Z" fill="#0C1D59"/>
<rect x="396" y="2052" width="1596" height="1596" rx="270" fill="#CAD6FF" stroke="white" stroke-width="60"/>
<rect x="3169" y="3738" width="868" height="306" rx="153" fill="#0C1D59"/>
<path d="M0 3891C0 3806.5 68.5004 3738 153 3738H715C799.5 3738 868 3806.5 868 3891V3891C868 3975.5 799.5 4044 715 4044H153C68.5004 4044 0 3975.5 0 3891V3891Z" fill="#0C1D59"/>
<rect width="306" height="4044" rx="153" fill="#0C1D59"/>
<rect x="3731" y="3" width="306" height="4041" rx="153" fill="#0C1D59"/>
</svg>
