<svg width="4400" height="4400" viewBox="0 0 4400 4400" fill="none" xmlns="http://www.w3.org/2000/svg">
<rect x="100" y="100" width="4200" height="4200" rx="700" fill="#D9D9D9" stroke="white" stroke-width="200"/>
<mask id="mask0_402_39" style="mask-type:alpha" maskUnits="userSpaceOnUse" x="200" y="200" width="4000" height="4000">
<rect x="200" y="200" width="4000" height="4000" rx="600" fill="#D9D9D9"/>
</mask>
<g mask="url(#mask0_402_39)">
<rect x="2200" y="200" width="2000" height="2000" fill="#B1C3FF"/>
<rect x="200" y="2200" width="2000" height="2000" fill="#B1C3FF"/>
<rect x="2200" y="2200" width="2000" height="2000" fill="#2D4DBB"/>
<rect x="200" y="200" width="2000" height="2000" fill="#2D4DBB"/>
<path d="M1186.82 1229.28L969.727 1870H717.48L1075.2 896.172L1235.16 901.445L1186.82 1229.28ZM952.148 518.242C984.961 518.242 1013.67 521.758 1038.28 528.789C1063.48 535.82 1085.45 546.074 1104.2 559.551C1123.54 572.441 1139.94 588.555 1153.42 607.891C1166.89 626.641 1178.03 647.734 1186.82 671.172L1554.2 1607.21C1561.82 1624.79 1569.73 1640.61 1577.93 1654.67C1586.13 1668.14 1595.8 1678.98 1606.93 1687.19C1618.07 1694.8 1631.54 1698.61 1647.36 1698.61C1652.64 1698.61 1657.91 1698.61 1663.18 1698.61C1668.46 1698.61 1673.14 1698.32 1677.25 1697.73L1679.88 1878.79C1668.75 1881.13 1655.57 1882.89 1640.33 1884.06C1625.1 1885.23 1608.4 1885.82 1590.23 1885.82C1544.53 1885.82 1505.57 1879.08 1473.34 1865.61C1441.11 1852.13 1414.16 1831.33 1392.48 1803.2C1371.39 1774.49 1352.93 1738.16 1337.11 1694.22L1091.02 1020.98L990.82 785.43C982.617 764.922 973.242 748.809 962.695 737.09C952.148 724.785 939.844 715.996 925.781 710.723C911.719 704.863 895.312 701.934 876.562 701.934C869.531 701.934 861.914 702.227 853.711 702.812C845.508 702.812 836.719 703.398 827.344 704.57L822.949 534.062C839.355 529.375 860.156 525.566 885.352 522.637C911.133 519.707 933.398 518.242 952.148 518.242Z" fill="white"/>
<path d="M3186.82 3229.28L2969.73 3870H2717.48L3075.2 2896.17L3235.16 2901.45L3186.82 3229.28ZM2952.15 2518.24C2984.96 2518.24 3013.67 2521.76 3038.28 2528.79C3063.48 2535.82 3085.45 2546.07 3104.2 2559.55C3123.54 2572.44 3139.94 2588.55 3153.42 2607.89C3166.89 2626.64 3178.03 2647.73 3186.82 2671.17L3554.2 3607.21C3561.82 3624.79 3569.73 3640.61 3577.93 3654.67C3586.13 3668.14 3595.8 3678.98 3606.93 3687.19C3618.07 3694.8 3631.54 3698.61 3647.36 3698.61C3652.64 3698.61 3657.91 3698.61 3663.18 3698.61C3668.46 3698.61 3673.14 3698.32 3677.25 3697.73L3679.88 3878.79C3668.75 3881.13 3655.57 3882.89 3640.33 3884.06C3625.1 3885.23 3608.4 3885.82 3590.23 3885.82C3544.53 3885.82 3505.57 3879.08 3473.34 3865.61C3441.11 3852.13 3414.16 3831.33 3392.48 3803.2C3371.39 3774.49 3352.93 3738.16 3337.11 3694.22L3091.02 3020.98L2990.82 2785.43C2982.62 2764.92 2973.24 2748.81 2962.7 2737.09C2952.15 2724.79 2939.84 2716 2925.78 2710.72C2911.72 2704.86 2895.31 2701.93 2876.56 2701.93C2869.53 2701.93 2861.91 2702.23 2853.71 2702.81C2845.51 2702.81 2836.72 2703.4 2827.34 2704.57L2822.95 2534.06C2839.36 2529.38 2860.16 2525.57 2885.35 2522.64C2911.13 2519.71 2933.4 2518.24 2952.15 2518.24Z" fill="white"/>
</g>
</svg>
